# AST/ASF file generated using VICON BodyLanguage
# -----------------------------------------------
:version 1.10
:name VICON
:units
  mass 1.0
  length 0.45
  angle deg
:documentation
   .ast/.asf automatically generated from VICON data using
   VICON BodyBuilder and BodyLanguage model FoxedUp or BRILLIANT.MOD
:root
   order TX TY TZ RX RY RZ
   axis XYZ
   position 0 0 0  
   orientation 0 0 0 
:bonedata
  begin
     id 1 
     name lhipjoint
     direction 0.662698 -0.695252 0.27831 
     length 2.53073 
     axis 0 0 0  XYZ
  end
  begin
     id 2 
     name lfemur
     direction 0.34202 -0.939693 0  
     length 7.16147  
     axis 0 0 20  XYZ
    dof rx ry rz
    limits (-160.0 20.0)
           (-70.0 70.0)
           (-60.0 70.0)
  end
  begin
     id 3 
     name ltibia
     direction 0.34202 -0.939693 0   
     length 7.63967   
     axis 0 0 20   XYZ
    dof rx
    limits (-10.0 170.0)
  end
  begin
     id 4 
     name lfoot
     direction 0.0938457 -0.257721 0.961651   
     length 1.89793   
     axis -90 7.62852e-016 20   XYZ
    dof rx rz
    limits (-45.0 90.0)
           (-70.0 20.0)
  end
  begin
     id 5 
     name ltoes
     direction -0.00116841 -0.0030592 0.999995   
     length 0.955649   
     axis -90 7.62852e-016 20   XYZ
    dof rx
    limits (-90.0 20.0)
  end
  begin
     id 6 
     name rhipjoint
     direction -0.649445 -0.705948 0.282592   
     length 2.49238  
     axis 0 0 0  XYZ 
  end
  begin
     id 7 
     name rfemur
     direction -0.34202 -0.939693 0   
     length 6.90728   
     axis 0 0 -20   XYZ
    dof rx ry rz
    limits (-160.0 20.0)
           (-70.0 70.0)
           (-70.0 60.0)
  end
  begin
     id 8 
     name rtibia
     direction -0.34202 -0.939693 0   
     length 7.72868   
     axis 0 0 -20   XYZ
    dof rx
    limits (-10.0 170.0)
 end
 begin
     id 9 
     name rfoot
     direction -0.0920068 -0.252865 0.963117   
     length 1.97476  
     axis -90 -7.62852e-016 -20   XYZ
    dof rx rz
    limits (-45.0 90.0)
           (-20.0 70.0)
  end
  begin
     id 10 
     name rtoes
     direction 0.000391322 0.00230649 0.999997   
     length 0.992641   
     axis -90 -7.62852e-016 -20   XYZ
    dof rx
    limits (-90.0 20.0)
  end
  begin
     id 11 
     name lowerback
     direction -0.00875327 0.998321 -0.0572635   
     length 2.20024   
     axis 0 0 0   XYZ
    dof rx ry rz
    limits (-20.0 45.0)
           (-30.0 30.0)
           (-30.0 30.0)
  end
  begin
     id 12 
     name upperback
     direction 0.00753931 0.999972 -0.000360425   
     length 2.20538   
     axis 0 0 0   XYZ
    dof rx ry rz
    limits (-20.0 45.0)
           (-30.0 30.0)
           (-30.0 30.0)
  end
  begin
     id 13 
     name thorax
     direction 0.0117767 0.999601 0.0256663   
     length 2.21508   
     axis 0 0 0   XYZ
    dof rx ry rz
    limits (-20.0 45.0)
           (-30.0 30.0)
           (-30.0 30.0)
  end
  begin
     id 14 
     name lowerneck
     direction 0.060228 0.994909 0.0807986   
     length 1.7607   
     axis 0 0 0   XYZ
    dof rx ry rz
    limits (-20.0 45.0)
           (-30.0 30.0)
           (-30.0 30.0)
  end
  begin
     id 15 
     name upperneck
     direction -0.0563647 0.959594 -0.275685   
     length 1.75612   
     axis 0 0 0   XYZ
    dof rx ry rz
    limits (-20.0 45.0)
           (-30.0 30.0)
           (-30.0 30.0)
  end
  begin
     id 16
     name head
     direction -0.0161544 0.99458 -0.102714  
     length 1.79288  
     axis 0 0 0   XYZ
    dof rx ry rz
    limits (-20.0 45.0)
           (-30.0 30.0)
           (-30.0 30.0)
  end
  begin
     id 17 
     name lclavicle
     direction 0.93913 0.332189 -0.087669  
     length 3.52087  
     axis 0 0 0   XYZ
    dof ry rz
    limits (-20.0 10.0)
           (0.0 20.0)
  end
  begin
     id 18 
     name lhumerus
     direction 1 -4.48974e-011 -2.70836e-027   
     length 5.35289   
     axis -180 -30 -90   XYZ
    dof rx ry rz
    limits (-60.0 90.0)
           (-90.0 90.0)
           (-90.0 90.0)
  end
  begin
     id 19
     name lradius
     direction 1 -4.48961e-011 -9.76021e-027   
     length 3.27727   
     axis -180 -30 -90   XYZ
    dof rx
    limits (-10.0 170.0)
  end
  begin
     id 20
     name lwrist
     direction 1 -4.49103e-011 -2.23668e-026   
     length 1.63864   
     axis 1.44924e-014 90 90   XYZ
    dof ry
    limits (-180.0 0.0)
 end
  begin
     id 21 
     name lhand
     direction 1 3.0697e-005 0.000161777   
     length 0.54443   
     axis 2.85318e-014 90 90   XYZ
    dof rx rz
    limits (-90.0 90.0)
           (-45.0 45.0)
  end
  begin
     id 22 
     name lfingers
     direction 1 -4.49027e-011 -8.9447e-026   
     length 0.438912   
     axis 5.70628e-014 90 90   XYZ
    dof rx
    limits (0.0 90.0)
  end
  begin
     id 23
     name lthumb
     direction 0.707058 2.6516e-005 0.707156   
     length 0.630274   
     axis -90 45 -3.53137e-014   XYZ
    dof rx rz
    limits (-45.0 45.0)
           (-45.0 45.0)
  end
  begin
     id 24 
     name rclavicle
     direction -0.95274 0.284984 -0.105215   
     length 3.43401  
     axis 0 0 0   XYZ 
    dof ry rz
    limits (-10.0 20.0)
           (-20.0 0.0)
  end
  begin
     id 25 
     name rhumerus
     direction -0.999999 -0.000575019 -0.00106829  
     length 5.52077   
     axis -180 30 90   XYZ
    dof rx ry rz
    limits (-90.0 60.0)
           (-90.0 90.0)
           (-90.0 90.0)
  end
  begin
     id 26 
     name rradius
     direction -1 -4.4879e-011 -6.35415e-027   
     length 3.32364   
     axis -180 30 90   XYZ
    dof rx
    limits (-10.0 170.0)
  end
  begin
     id 27 
     name rwrist
     direction -1 -4.49048e-011 -9.98542e-027   
     length 1.66182   
     axis 6.32482e-015 -90 -90   XYZ
    dof ry
    limits (-180.0 0.0)
  end
  begin
     id 28
     name rhand
     direction -1 -4.48978e-011 -1.99771e-026   
     length 0.732235   
     axis 1.27479e-014 -90 -90   XYZ
    dof rx rz
    limits (-90.0 90.0)
           (-45.0 45.0)
  end
  begin
     id 29
     name rfingers
     direction -1 -4.49144e-011 -3.99245e-026   
     length 0.590347   
     axis 2.5496e-014 -90 -90   XYZ
    dof rx
    limits (0.0 90.0)
  end
  begin
     id 30
     name rthumb
     direction -0.707107 -6.35121e-011 0.707107   
     length 0.847624   
     axis -90 -45 -2.82974e-014   XYZ
    dof rx rz
    limits (-45.0 45.0)
           (-45.0 45.0)
  end
:hierarchy
  begin
    root lhipjoint rhipjoint lowerback
    lhipjoint lfemur
    lfemur ltibia
    ltibia lfoot
    lfoot ltoes
    rhipjoint rfemur
    rfemur rtibia
    rtibia rfoot
    rfoot rtoes
    lowerback upperback
    upperback thorax
    thorax lowerneck lclavicle rclavicle
    lowerneck upperneck
    upperneck head
    lclavicle lhumerus
    lhumerus lradius
    lradius lwrist
    lwrist lhand lthumb
    lhand lfingers
    rclavicle rhumerus
    rhumerus rradius
    rradius rwrist
    rwrist rhand rthumb
    rhand rfingers
  end

#!OML:ASF G:\Work\Work\Patient Classification 1\Elijah\terrain1\Elijah.ASF
:FULLY-SPECIFIED
:DEGREES
1569
root -4.16276 20.5564 -16.7031 368.386 -26.5586 -2.21054
lowerback 3.39528 -1.3009 11.4774
upperback 1.95139 -1.55611 -9.89278
thorax -0.404806 -0.737414 -17.7382
lowerneck -0.0918868 18.5809 24.5088
upperneck 9.52152 28.0998 -26.5519
head 10.7004 13.3962 -8.88091
rclavicle 1.35174e-014 -5.08889e-014
rhumerus -40.92 1.81297 -102.783
rradius 42.0197
rwrist -0.950293
rhand -13.1233 22.4482
rfingers 7.12502
rthumb 12.9744 -7.12838
lclavicle 1.35174e-014 -5.08889e-014
lhumerus -30.6113 3.98778 60.8795
lradius 21.6122
lwrist -7.42876
lhand -14.5199 27.744
lfingers 7.12502
lthumb 11.6277 57.4014
rfemur -16.5934 -8.54002 17.4932
rtibia 56.5341
rfoot -13.3006 -11.0369
rtoes -35.9461
lfemur -32.1031 -1.28106 -21.4559
ltibia 45.1736
lfoot -21.0242 -6.49837
ltoes -6.18462
1570
root -4.17628 20.5826 -16.6453 368.501 -26.3094 -2.08539
lowerback 3.52528 -1.29707 11.015
upperback 1.86172 -1.55557 -9.885
thorax -0.567022 -0.759516 -17.4166
lowerneck -0.483057 18.6272 24.595
upperneck 9.75619 28.12 -26.422
head 10.8469 13.3718 -8.80526
rclavicle -5.1684e-014 1.90833e-014
rhumerus -40.9629 1.09214 -102.206
rradius 41.5401
rwrist -1.05455
rhand -12.4226 23.5018
rfingers 7.12502
rthumb 13.6497 -6.03067
lclavicle -5.1684e-014 1.90833e-014
lhumerus -30.1981 3.36578 61.171
lradius 22.0009
lwrist -7.48692
lhand -15.0105 26.9553
lfingers 7.12502
lthumb 11.1546 56.6388
rfemur -18.3036 -8.35746 17.7858
rtibia 58.1018
rfoot -13.3182 -11.1017
rtoes -36.3977
lfemur -31.7777 -1.63208 -21.5501
ltibia 44.5367
lfoot -20.657 -6.88763
ltoes -3.80233
1571
root -4.18884 20.6146 -16.5751 368.449 -25.8048 -1.64795
lowerback 3.35651 -1.34608 10.5255
upperback 1.82132 -1.65181 -9.97686
thorax -0.543923 -0.812485 -17.2039
lowerneck -0.503518 18.5151 24.5993
upperneck 9.83169 27.9451 -26.3062
head 10.8044 13.2939 -8.81618
rclavicle -2.8625e-014 -1.27222e-013
rhumerus -40.9993 0.252693 -101.639
rradius 41.1066
rwrist -1.45905
rhand -10.8405 24.2329
rfingers 7.12502
rthumb 15.1742 -5.19069
lclavicle -2.8625e-014 -1.27222e-013
lhumerus -30.0186 2.70259 61.4719
lradius 22.6844
lwrist -7.10654
lhand -15.2329 26.9944
lfingers 7.12502
lthumb 10.9402 56.6893
rfemur -19.8707 -8.50396 17.7793
rtibia 59.4707
rfoot -13.3059 -11.1441
rtoes -37.1857
lfemur -31.3279 -2.18449 -22.0088
ltibia 43.9289
lfoot -20.5986 -6.73175
ltoes -4.73399
1572
root -4.19825 20.6365 -16.5021 368.342 -25.4218 -1.41505
lowerback 3.36348 -1.37196 10.2238
upperback 1.84192 -1.69646 -10.0471
thorax -0.537458 -0.835196 -17.0898
lowerneck -0.553079 18.3999 24.7095
upperneck 9.87109 27.7537 -26.2136
head 10.7718 13.2107 -8.84889
rclavicle -7.15625e-015 -2.8625e-014
rhumerus -41.4453 1.00393 -102.323
rradius 42.0026
rwrist -0.639686
rhand -14.3254 20.3731
rfingers 7.12502
rthumb 11.8153 -9.27359
lclavicle -7.15625e-015 -2.8625e-014
lhumerus -29.5912 1.91771 61.7295
lradius 23.441
lwrist -6.38374
lhand -15.1415 27.1795
lfingers 7.12502
lthumb 11.0283 56.8698
rfemur -21.2287 -8.43913 17.9147
rtibia 60.6513
rfoot -13.4073 -11.3095
rtoes -38.1138
lfemur -30.742 -2.35261 -22.3463
ltibia 43.3524
lfoot -20.7323 -6.69317
ltoes -6.09596
1573
root -4.20392 20.6533 -16.4198 368.254 -24.9177 -1.31935
lowerback 3.43162 -1.4642 10.0407
upperback 1.86735 -1.82092 -10.0138
thorax -0.589023 -0.902335 -16.9171
lowerneck -0.886528 18.4178 24.7424
upperneck 10.1447 27.7383 -26.0285
head 10.8922 13.1754 -8.76476
rclavicle 4.92986e-014 -2.54444e-014
rhumerus -41.7076 0.802018 -101.94
rradius 41.9553
rwrist -0.840363
rhand -14.12 20.1533
rfingers 7.12502
rthumb 12.0134 -9.48193
lclavicle 4.92986e-014 -2.54444e-014
lhumerus -29.1533 0.977869 62.1434
lradius 24.0432
lwrist -5.45402
lhand -15.1892 27.1658
lfingers 7.12502
lthumb 10.9823 56.8585
rfemur -22.493 -8.41529 18.1605
rtibia 61.7514
rfoot -13.4946 -11.3497
rtoes -38.8577
lfemur -30.1354 -2.55688 -22.5624
ltibia 42.8307
lfoot -20.8162 -6.82281
ltoes -6.42546
1574
root -4.212 20.6726 -16.3322 367.943 -25.0256 -1.04999
lowerback 3.57826 -1.36655 9.62236
upperback 1.95271 -1.69126 -10.0629
thorax -0.524671 -0.826505 -16.7091
lowerneck -1.28215 18.5427 24.6901
upperneck 10.3623 27.8557 -25.8427
head 11.0274 13.1931 -8.62148
rclavicle -4.92986e-014 -3.81667e-014
rhumerus -41.5816 0.30725 -101.507
rradius 41.4713
rwrist -0.490886
rhand -14.4638 19.9692
rfingers 7.12502
rthumb 11.6819 -9.68516
lclavicle -4.92986e-014 -3.81667e-014
lhumerus -28.7784 0.120128 62.5716
lradius 24.7574
lwrist -4.44444
lhand -15.3306 27.9621
lfingers 7.12502
lthumb 10.8459 57.662
rfemur -23.6057 -7.84834 18.0907
rtibia 62.7032
rfoot -13.7018 -11.1799
rtoes -39.009
lfemur -29.2469 -2.52613 -23.0147
ltibia 42.2869
lfoot -20.9589 -6.59991
ltoes -6.65025
1575
root -4.23564 20.6838 -16.3277 368.511 -23.5224 -0.472358
lowerback 3.13067 -1.72431 8.7054
upperback 1.91935 -2.22759 -10.1156
thorax -0.472145 -1.10547 -16.1463
lowerneck -1.61896 18.5858 24.8643
upperneck 10.3126 27.8256 -25.8054
head 11.0824 13.1616 -8.60206
rclavicle 7.95139e-015 -7.95139e-014
rhumerus -41.2271 -0.380362 -101.204
rradius 40.9638
rwrist -0.32529
rhand -14.4959 19.866
rfingers 7.12502
rthumb 11.6509 -9.79006
lclavicle 7.95139e-015 -7.95139e-014
lhumerus -28.1452 -0.673008 62.7667
lradius 25.533
lwrist -3.4342
lhand -15.6042 28.1098
lfingers 7.12502
lthumb 10.582 57.8234
rfemur -25.8627 -8.4539 18.4238
rtibia 63.6804
rfoot -14.1683 -11.2552
rtoes -38.5256
lfemur -29.8893 -3.0376 -23.3819
ltibia 41.7628
lfoot -20.3126 -7.68226
ltoes -5.81079
